<svg xmlns="http://www.w3.org/2000/svg" viewBox="0 0 64 64" role="img" aria-label="Cryptography Lab">
  <defs>
    <linearGradient id="g" x1="0" y1="0" x2="1" y2="1">
      <stop offset="0" stop-color="#0ea5e9"/>
      <stop offset="1" stop-color="#10b981"/>
    </linearGradient>
  </defs>
  <rect width="64" height="64" rx="14" fill="url(#g)"/>
  <path d="M20 30a12 12 0 0124 0v6h4a2 2 0 012 2v14a2 2 0 01-2 2H16a2 2 0 01-2-2V38a2 2 0 012-2h4v-6zm8 0v6h8v-6a4 4 0 00-8 0zm4 12a3 3 0 013 3c0 1.2-.7 2.2-1.7 2.7V50a1.3 1.3 0 01-2.6 0v-2.3A3 3 0 0129 45a3 3 0 013-3z" fill="#0b172a" fill-opacity="0.9"/>
</svg>
